<svg id="Component_5_2" data-name="Component 5 – 2" xmlns="http://www.w3.org/2000/svg" width="17.288" height="17.288" viewBox="0 0 17.288 17.288">
  <g id="Path_7" data-name="Path 7" fill="none">
    <path d="M5.386,0A5.386,5.386,0,1,1,0,5.386,5.386,5.386,0,0,1,5.386,0Z" stroke="none"/>
    <path d="M 5.38560152053833 2.000001907348633 C 3.518771648406982 2.000001907348633 2.000001907348633 3.518771648406982 2.000001907348633 5.38560152053833 C 2.000001907348633 7.252431869506836 3.518771648406982 8.771202087402344 5.38560152053833 8.771202087402344 C 7.252431869506836 8.771202087402344 8.771202087402344 7.252431869506836 8.771202087402344 5.38560152053833 C 8.771202087402344 3.518771648406982 7.252431869506836 2.000001907348633 5.38560152053833 2.000001907348633 M 5.38560152053833 1.9073486328125e-06 C 8.359991073608398 1.9073486328125e-06 10.77120113372803 2.411211967468262 10.77120113372803 5.38560152053833 C 10.77120113372803 8.359991073608398 8.359991073608398 10.77120113372803 5.38560152053833 10.77120113372803 C 2.411211967468262 10.77120113372803 1.9073486328125e-06 8.359991073608398 1.9073486328125e-06 5.38560152053833 C 1.9073486328125e-06 2.411211967468262 2.411211967468262 1.9073486328125e-06 5.38560152053833 1.9073486328125e-06 Z" stroke="none" fill="#31393b"/>
  </g>
  <line id="Line_11" data-name="Line 11" x1="6.803" y1="6.803" transform="translate(9.07 9.07)" fill="none" stroke="#31393b" stroke-linecap="round" stroke-width="2"/>
</svg>
