<svg id="Component_3_1" data-name="Component 3 – 1" xmlns="http://www.w3.org/2000/svg" width="36.518" height="27" viewBox="0 0 36.518 27">
  <g id="Union_2" data-name="Union 2" fill="none">
    <path d="M0,27,4.722,5.978H9.029C9.4,2.632,13.273,0,18,0s8.6,2.632,8.971,5.978h5.116L36.518,27Z" stroke="none"/>
    <path d="M 34.05214309692383 25 L 30.46522521972656 7.977799892425537 L 25.1793212890625 7.977799892425537 L 24.98335075378418 6.19651985168457 C 24.87026023864746 5.168630123138428 24.16837120056152 4.173910140991211 23.00698089599609 3.39559006690979 C 21.66407012939453 2.495630025863647 19.88589096069336 2 18 2 C 16.11411094665527 2 14.33592128753662 2.495630025863647 12.99301052093506 3.395600080490112 C 11.83162117004395 4.173910140991211 11.12973117828369 5.168630123138428 11.01663112640381 6.196529865264893 L 10.82065105438232 7.977799892425537 L 6.322868824005127 7.977799892425537 L 2.499104976654053 25 L 34.05214309692383 25 M 36.51750183105469 27 L 9.155273232863692e-07 27 L 4.722301006317139 5.977799892425537 L 9.028631210327148 5.977799892425537 C 9.396760940551758 2.631870031356812 13.27262115478516 -1.77635683940025e-15 18 -1.77635683940025e-15 C 22.72738075256348 -1.77635683940025e-15 26.60323143005371 2.631870031356812 26.97135162353516 5.977799892425537 L 32.08769989013672 5.977799892425537 L 36.51750183105469 27 Z" stroke="none" fill="#31393b"/>
  </g>
  <line id="Line_1" data-name="Line 1" y2="3" transform="translate(9.5 6.5)" fill="none" stroke="#31393b" stroke-width="2"/>
  <line id="Line_2" data-name="Line 2" y2="3" transform="translate(26.5 6.5)" fill="none" stroke="#31393b" stroke-width="2"/>
  <line id="Line_3" data-name="Line 3" x2="17" transform="translate(9.5 6.5)" fill="none" stroke="#31393b" stroke-width="2"/>
</svg>
